<svg width="108" height="108" viewBox="0 0 108 108" fill="none" xmlns="http://www.w3.org/2000/svg">
<path d="M90.5285 29.0307C90.4857 28.9879 90.4429 28.9452 90.4001 28.9238C85.9494 25.6696 86.3896 24.117 82.1078 17.0193C81.874 17.1362 82.7701 16.9049 70.8871 19.755C78.2178 54.571 39.7897 84.1296 16.4081 81.1802C13.2022 80.774 10.2953 82.4197 8.88487 85.2838C7.66647 87.7415 7.88041 90.6056 9.46197 92.7857C9.50476 92.8924 9.56841 92.978 9.65399 93.0847C15.6171 100.779 25.4059 105.011 37.2037 105.011C70.0961 105.011 99.3557 73.1226 99.5691 48.3303C99.6333 40.1444 96.513 33.455 90.5285 29.0307ZM85.6341 41.7902C82.2784 57.606 74.1781 71.2632 62.8296 80.2824C62.6156 80.475 62.338 80.6887 62.0599 80.9023C52.9979 87.8913 43.8075 91.0972 34.4038 94.0038C33.2709 94.3672 32.0739 93.726 31.7322 92.6145C31.3904 91.4817 32.0098 90.285 33.1426 89.9216C42.1618 87.143 50.9462 84.0869 59.4739 77.5041C59.6878 77.3332 59.9012 77.1621 60.1152 76.991C70.7374 68.5489 78.3034 55.7466 81.4451 40.9141C81.7013 39.7599 82.8341 39.0119 83.9883 39.2683C85.1425 39.5034 85.8908 40.6362 85.6341 41.7902ZM82.5801 9.89388C83.0079 11.2641 82.1086 12.673 80.5706 13.0418L79.2034 13.3696L71.2075 15.3047L68.8768 15.8582C67.3383 16.2236 65.7458 15.4102 65.318 14.0404L63.624 8.61541C63.1957 7.24371 64.0974 5.8336 65.6377 5.46651L77.3243 2.65001C78.8634 2.28319 80.4575 3.09666 80.8855 4.46729L82.5801 9.89388Z" fill="#272727"/>
</svg>
