<svg width="113" height="113" viewBox="0 0 113 113" fill="none" xmlns="http://www.w3.org/2000/svg">
<path fill-rule="evenodd" clip-rule="evenodd" d="M56.5668 5.5801C71.1647 5.5801 84.3239 11.7389 93.5887 21.6077H83.2882C81.8126 21.6077 80.616 22.804 80.616 24.2798C80.616 25.7556 81.8126 26.9519 83.2882 26.9519H99.321C100.797 26.9519 101.993 25.7556 101.993 24.2798V8.25223C101.993 6.77647 100.797 5.5801 99.321 5.5801C97.8454 5.5801 96.6488 6.77647 96.6488 8.25223V17.0786C86.4664 6.68791 72.2699 0.23584 56.5668 0.23584C25.5755 0.23584 0.452087 25.3593 0.452087 56.3506C0.452087 63.2554 1.7004 69.8743 3.98593 75.9908C4.5025 77.3733 6.04197 78.075 7.42437 77.5588C8.80677 77.042 9.50869 75.5028 8.99211 74.1203C6.92677 68.5932 5.79635 62.6071 5.79635 56.3506C5.79635 28.3108 28.5271 5.5801 56.5668 5.5801ZM105.709 35.1426C104.327 35.6592 103.625 37.1986 104.141 38.581C106.207 44.1081 107.337 50.0941 107.337 56.3506C107.337 84.3903 84.6066 107.121 56.5668 107.121C41.9688 107.121 28.8098 100.962 19.5452 91.0937H29.8455C31.3213 91.0937 32.5177 89.8971 32.5177 88.4215C32.5177 86.9454 31.3213 85.7494 29.8455 85.7494H13.8127C12.337 85.7494 11.1406 86.9454 11.1406 88.4215V104.449C11.1406 105.925 12.337 107.121 13.8127 107.121C15.2885 107.121 16.4849 105.925 16.4849 104.449V95.6224C26.6673 106.013 40.8639 112.465 56.5668 112.465C87.5582 112.465 112.682 87.342 112.682 56.3506C112.682 49.4458 111.433 42.8267 109.148 36.7103C108.631 35.3279 107.092 34.626 105.709 35.1426Z" fill="#272727"/>
<path d="M46.614 86.4078L79.3496 53.6722H61.1631L68.4377 28.2112L35.7021 60.9468H53.8885L46.614 86.4078Z" fill="#272727"/>
</svg>
